<svg width="30" height="29" viewBox="0 0 30 29" fill="none" xmlns="http://www.w3.org/2000/svg">
<g clip-path="url(#clip0_699_621)">
<path d="M7.75 14.5C7.75 16.502 6.12703 18.125 4.125 18.125C2.12297 18.125 0.5 16.502 0.5 14.5C0.5 12.498 2.12297 10.875 4.125 10.875C6.12703 10.875 7.75 12.498 7.75 14.5Z" fill="#7D7D7D"/>
<path d="M18.625 14.5C18.625 16.502 17.002 18.125 15 18.125C12.998 18.125 11.375 16.502 11.375 14.5C11.375 12.498 12.998 10.875 15 10.875C17.002 10.875 18.625 12.498 18.625 14.5Z" fill="#7D7D7D"/>
<path d="M25.875 18.125C27.8771 18.125 29.5 16.502 29.5 14.5C29.5 12.498 27.8771 10.875 25.875 10.875C23.8729 10.875 22.25 12.498 22.25 14.5C22.25 16.502 23.8729 18.125 25.875 18.125Z" fill="#7D7D7D"/>
</g>
<defs>
<clipPath id="clip0_699_621">
<rect width="29" height="29" fill="white" transform="translate(0.5)"/>
</clipPath>
</defs>
</svg>
